<?xml version="1.0" encoding="UTF-8"?>
<svg width="227px" height="275px" viewBox="0 0 227 275" version="1.1" xmlns="http://www.w3.org/2000/svg" xmlns:xlink="http://www.w3.org/1999/xlink">
    <!-- Generator: Sketch 41.1 (35376) - http://www.bohemiancoding.com/sketch -->
    <title>domainatrix</title>
    <desc>Created with Sketch.</desc>
    <defs></defs>
    <g id="Page-1" stroke="none" stroke-width="1" fill="none" fill-rule="evenodd">
        <g id="Desktop-HD" transform="translate(-500.000000, -458.000000)">
            <g id="domainatrix" transform="translate(500.000000, 458.000000)">
                <g id="Group-2">
                    <g id="Group">
                        <path d="M114,208.936084 C108.683857,208.936084 94.5583458,208.994509 84.0835749,212.070722 C77.0410416,214.138961 73.1065967,218.513741 67.8670926,228.433919 C66.6629912,230.713697 52.5557456,233.585548 42.4212982,229.460827 C38.424558,227.834154 37.8028084,174.691888 38.723425,127.803869 C38.7299741,127.470318 38.93443,112.587492 38.7433057,112.806887 C34.6306928,117.527838 23.3062016,151.329009 23.3062016,169.973175 C23.3062016,175.221071 15.9346949,179.754975 8.34988199,178.167593 C4.75468216,177.415174 0.446274435,174.51879 0.446274435,167.520141 C0.446274435,159.701323 5.11490281,147.107259 18.0649934,127.803869 C31.015084,108.500479 39.3205005,104.628159 39.3309211,104.308138 C40.1329223,79.6782868 41.3370271,60.3850397 42.598594,57.2925344 C42.7595955,56.897868 39.6304885,55.1714625 38.9663524,54.8117601 C29.948121,49.9274013 7.70019894,26.2608446 4.55674904,12.4183042 C2.82627477,4.79796332 7.47933438,-1.2680223 8.34988199,1.2682414 C12.9499223,14.6700531 43.5269942,37.5734387 43.943403,32.418924 C43.9771246,32.001502 45.5101157,27.7395469 45.8339039,25.3618658 L45.8339039,25.3618658 C46.1576921,22.9841848 64.726068,1.2682414 114,1.2682414" id="Path" fill="#ED695F"></path>
                        <ellipse id="Oval" fill="#231F20" cx="86" cy="58.4735982" rx="5" ry="6.46270232"></ellipse>
                        <path d="M114,83.0335322 C114,83.0335322 89.6033744,82.2080048 79.9822916,84.4879531 C77.0100267,85.1923033 75.5688526,85.316985 76.2944312,86.9517406 C85.1316128,106.862239 104.803531,109.467604 114,109.467604" id="Path-2" fill="#291A2C"></path>
                    </g>
                    <g id="Group-Copy" transform="translate(170.000000, 116.000000) scale(-1, 1) translate(-170.000000, -116.000000) translate(113.000000, 0.000000)">
                        <path d="M114,208.936084 C108.683857,208.936084 94.5583458,208.994509 84.0835749,212.070722 C77.0410416,214.138961 73.1065967,218.513741 67.8670926,228.433919 C66.6629912,230.713697 52.5557456,233.585548 42.4212982,229.460827 C38.424558,227.834154 37.8028084,174.691888 38.723425,127.803869 C38.7299741,127.470318 38.93443,112.587492 38.7433057,112.806887 C34.6306928,117.527838 23.3062016,151.329009 23.3062016,169.973175 C23.3062016,175.221071 15.9346949,179.754975 8.34988199,178.167593 C4.75468216,177.415174 0.446274435,174.51879 0.446274435,167.520141 C0.446274435,159.701323 5.11490281,147.107259 18.0649934,127.803869 C31.015084,108.500479 39.3205005,104.628159 39.3309211,104.308138 C40.1329223,79.6782868 41.3370271,60.3850397 42.598594,57.2925344 C42.7595955,56.897868 39.6304885,55.1714625 38.9663524,54.8117601 C29.948121,49.9274013 7.70019894,26.2608446 4.55674904,12.4183042 C2.82627477,4.79796332 7.47933438,-1.2680223 8.34988199,1.2682414 C12.9499223,14.6700531 43.5269942,37.5734387 43.943403,32.418924 C43.9771246,32.001502 45.5101157,27.7395469 45.8339039,25.3618658 L45.8339039,25.3618658 C46.1576921,22.9841848 64.726068,1.2682414 114,1.2682414" id="Path" fill="#ED695F"></path>
                        <ellipse id="Oval" fill="#231F20" cx="86" cy="58.4735982" rx="5" ry="6.46270232"></ellipse>
                        <path d="M114,83.0335322 C114,83.0335322 89.6033744,82.2080048 79.9822916,84.4879531 C77.0100267,85.1923033 75.5688526,85.316985 76.2944312,86.9517406 C85.1316128,106.862239 104.803531,109.467604 114,109.467604" id="Path-2" fill="#291A2C"></path>
                    </g>
                </g>
                <ellipse id="Oval-2" fill="#DADADA" cx="113" cy="269" rx="51" ry="6"></ellipse>
            </g>
        </g>
    </g>
</svg>